/* XPM */
static char *_009[] = {
/* columns rows colors chars-per-pixel */
"48 60 22 1 ",
"  c None",
". c black",
"X c #010101",
"o c #020202",
"O c gray1",
"+ c #040404",
"@ c #060606",
"# c #090909",
"$ c #DDDDDD",
"% c gray87",
"& c #DFDFDF",
"* c gray88",
"= c #E1E1E1",
"- c #E2E2E2",
"; c gray89",
": c #E4E4E4",
"> c gray90",
", c #E6E6E6",
"< c #E7E7E7",
"1 c #E9E9E9",
"2 c #EAEAEA",
"3 c #EEEEEE",
/* pixels */
"**********&&****,,,,****1111********,,,,******* ",
"**********&&****,,,,****1111********,,,,******* ",
"****,,****&&****,,,,****1111****,*,,,,,,******* ",
",,****,,,,,,,,,,............++++,,,,,,,,,,,,,,, ",
",,****,,,,,,,,,,..++........++++**,,,,,,,,*,,,, ",
",,****,,,,,,,,,,...+........++++**,,,,,,,,,,,,, ",
",,****,,,,,,,,,,...+........++++****,,,,,,,,,,, ",
"**,,,*****&&........****++++........****,,,**** ",
"**,,,*****&&........&&**++++.......+,,**,,,**** ",
"****,,****&&........&&**++++........,,**,,,**** ",
"****,,**,,&&........&***++++........,,,*,,,***& ",
",,,,,,****,,........,,,,****++++........***,,,* ",
",,,,,,****,,........,,,,****++++........***,,,, ",
",,,,,,****,,........,,,,****++++........***,,,, ",
"*,********..........**,,,,**............,,**,,, ",
"*,********..........***,,,**............,***,,, ",
"****,,,,**..........******,,............******* ",
",***,,,,**..........******,,............******* ",
",,****,,**..........,,,,*,,,............,,****, ",
",,****,***..........,,,,**,,............,****** ",
",,,,******..........**,,,,,*............,,****, ",
",,********..........**,*,,,,............,,****, ",
"*******,,,..........****,***............,,***,, ",
"*******,,,..........*****,**............,,****, ",
"**,*******..........,,****,,............,,****, ",
"**,,*****,..........,*****,,............,,,***, ",
"*,,,,***,,..........,,******............,,****, ",
",,,,,***,,..........,,******............,,****, ",
",,**,,,,**..........**,*****............,*****, ",
",,**,,,,**..........,,**,***............,*****, ",
",,****,***..........,,,,****............******* ",
",,********..........,,,***,,............******* ",
",*********..........**,,,,,,............**,,,,, ",
",*********..........**,,,,*,............**,*,,, ",
"******,,,,..........********............******* ",
"*****,,,,,..........********............******* ",
"*,****,,**..........**,,**,,............******* ",
",,****,,**..........**,,**,,............******* ",
",,,,***,**..........**,,*,,,............****,,, ",
",,,,******..........**,,*,,,............**,,,,, ",
"****,,****..........**,,,,**............*,***** ",
"****,*****..........**,*,,,*............,,***** ",
"**,,,,***,..........****,,**............,,,,,,* ",
"**,,,,**,,..........****,,**............,,,,,,, ",
"**,,,,******........****1,,,........****,,,**** ",
"**,,,,******........,***1,,,........****,,,**** ",
"**,,,,******........,,**,,,,........****,,,**** ",
"**,,,,******........,,**,,,,........****,,,**** ",
",,1111&&&&11............&&&&####++++,,,,&&&,,,* ",
",,1111&&&&11............&&&&####++++,,,,&&&,,,* ",
",,1111&&&&11............&&&&####++++,,,,&&&,,,, ",
",,1111&&&&11............&&&&####++++,,,,&&&,,,, ",
"******,,,,&&****++++....++++....,,,,&&&&333**** ",
"******,,,,&&****++++....++++....,,,,&&&&333**** ",
"******,,,,&&****++++....++++....,,,,&&&&333**** ",
"******,,,,&&****++++....++++....,,,,&&&&333**** ",
",,****,,,,,,****1111********,,,,****,,,,&&&,,,, ",
",,****,,,,,,****1111********,,,,****,,,,&&&,,,, ",
",,****,,,,,,****1111********,,,,****,,,,&&&,,,, ",
",,****,,,*,,****1111********,,,,****,,,,&&&,,,, "
};
