/* XPM */
static char *_008[] = {
/* columns rows colors chars-per-pixel */
"48 60 24 1 ",
"  c #E6E6E6",
". c #E2E2E2",
"X c gray89",
"o c #DDDDDD",
"O c #E4E4E4",
"+ c gray90",
"@ c #E1E1E1",
"# c gainsboro",
"$ c gray91",
"% c #D8D8D8",
"& c gray92",
"* c black",
"= c #EAEAEA",
"- c #DFDFDF",
"; c #010101",
": c gray1",
"> c #020202",
", c gray88",
"< c #E9E9E9",
"1 c #040404",
"2 c #E7E7E7",
"3 c gray87",
"4 c #060606",
"5 c gray86",
/* pixels */
"   ....XXXoooo    XXXX....    OOOO...+++@@@@@@@@",
"   ....XXXoooo    XXXX....    OOOO...+++@@@@@@@@",
"   ....XXXoooo    XXXX....    OOOO...+++@@@@@@@@",
"###++++$$$++++%%%%&&&&************OOO@@@....====",
"###++++$$$++++%%%%&&&&************OOO@@@....====",
"###++++$$$++++%%%%&&&&************OOO@@@....====",
"###++++$$$++++%%%%&&&&************OOO@@@....====",
"+++----+++;;;;::::****::::****>>>>@@@XXX$$$$####",
"+++----+++;;;;::::****::::****>>>>@@@XXX$$$$####",
"+++----+++;;;;::::****::::****>>>>@@@XXX$$$$####",
"+++----+++;;;;::::****::::****>>>>@@@XXX$$$$####",
"   ....***********OOOO************XXX@@@,,,,<<<<",
"   ....***********OOOO************XXX@@@,,,,<<<<",
"   ....***********OOOO************XXX@@@,,,,<<<<",
"   ....***********OOOO************XXX@@@,,,,<<<<",
"OOOXXXXOOO....XXXXXXXX************XXXOOOXXXX....",
"OOOXXXXOOO....XXXXXXXX************XXXOOOXXXX....",
"OOOXXXXOOO....XXXXXXXX************XXXOOOXXXX....",
"OOOXXXXOOO....XXXXXXXX************XXXOOOXXXX....",
"OOOXXXXOOO....XXXXXXXX************XXXOOOXXXX....",
"OOOXXXXOOO....XXXXXXXX************XXXOOOXXXX....",
"OOOXXXXOOO....XXXXXXXX************XXXOOOXXXX....",
"OOOXXXXOOO....XXXXXXXX************XXXOOOXXXX....",
"OOOXXXXOOO....XXXXXXXX************XXXOOOXXXX....",
"OOOXXXXOOO....XXXXXXXX************XXXOOOXXXX....",
"OOOXXXXOOO....XXXXXXXX************XXXOOOXXXX....",
"OOOXXXXOOO....XXXXXXXX************XXXOOOXXXX....",
"OOOXXXXOOO....XXXXXXXX************XXXOOOXXXX....",
"OOOXXXXOOO....XXXXXXXX************XXXOOOXXXX....",
"OOOXXXXOOO....XXXXXXXX************XXXOOOXXXX....",
"OOOXXXXOOO....XXXXXXXX************XXXOOOXXXX....",
"OOOXXXXOOO....XXXXXXXX************XXXOOOXXXX....",
"OOOXXXXOOO....XXXXXXXX************XXXOOOXXXX....",
"OOOXXXXOOO....XXXXXXXX************XXXOOOXXXX....",
"OOOXXXXOOO....XXXXXXXX************XXXOOOXXXX....",
"OOOXXXXOOO....XXXXXXXX************XXXOOOXXXX....",
"OOOXXXXOOO....XXXXXXXX************XXXOOOXXXX....",
"OOOXXXXOOO....XXXXXXXX************XXXOOOXXXX....",
"OOOXXXXOOO....XXXXXXXX************XXXOOOXXXX....",
"OOOXXXXOOO....XXXXXXXX************XXXOOOXXXX....",
"OOOXXXXOOO....XXXXXXXX************XXXOOOXXXX....",
"OOOXXXXOOO....XXXXXXXX************XXXOOOXXXX....",
"OOOXXXXOOO....XXXXXXXX************XXXOOOXXXX....",
"OOOXXXXOOO....XXXXXXXX************XXXOOOXXXX....",
"OOOXXXXOOO....XXXXXXXX************XXXOOOXXXX....",
"OOOXXXXOOO....XXXXXXXX************XXXOOOXXXX....",
",,,$$$$XXX----OOOO,,,,;;;;****::::+++OOO@@@@    ",
",,,$$$$XXX----OOOO,,,,;;;;****::::+++OOO@@@@    ",
"<<<----,,,&&&&XXXXOOOO****1111****@@@OOO$$$$,,,,",
"<<<----,,,&&&&XXXXOOOO****1111****@@@OOO$$$$,,,,",
"<<<----,,,&&&&XXXXOOOO****1111****@@@OOO$$$$,,,,",
"<<<----,,,&&&&XXXXOOOO****1111****@@@OOO$$$$,,,,",
"+++++++2223333********>>>>****4444******++++5555",
"+++++++2223333********>>>>****4444******++++5555",
"+++++++2223333********>>>>****4444******++++5555",
"+++++++2223333********>>>>****4444******++++5555",
"OOOoooo,,,    ....    ........@@@@   XXXOOOOOOOO",
"OOOoooo,,,    ....    ........@@@@   XXXOOOOOOOO",
"OOOoooo,,,    ....    ........@@@@   XXXOOOOOOOO",
"OOOoooo,,,    ....    ........@@@@   XXXOOOOOOOO"
};
