/* XPM */
static char *_007[] = {
/* columns rows colors chars-per-pixel */
"48 60 23 1 ",
"  c #E6E6E6",
". c #E2E2E2",
"X c #DFDFDF",
"o c gray88",
"O c #E7E7E7",
"+ c gray90",
"@ c gray89",
"# c #E1E1E1",
"$ c gainsboro",
"% c #E4E4E4",
"& c gray91",
"* c #010101",
"= c #040404",
"- c black",
"; c #070707",
": c gray1",
"> c #020202",
", c gray2",
"< c gray87",
"1 c #E9E9E9",
"2 c #DDDDDD",
"3 c #EAEAEA",
"4 c #060606",
/* pixels */
"   ....XXXoooo....OOOOXXXX++++@@@@###@@@@$$$$...",
"   ....XXXoooo....OOOOXXXX++++@@@@###@@@@$$$$...",
"   ....XXXoooo....OOOOXXXX++++@@@@###@@@@$$$$...",
"XXX%%%%@@@&&&&****====------------###&&&&&&&&+++",
"XXX%%%%@@@&&&&****====------------###&&&&&&&&+++",
"XXX%%%%@@@&&&&****====------------###&&&&&&&&+++",
"XXX%%%%@@@&&&&****====------------###&&&&&&&&+++",
"+++oooo;;;------------::::---->>>>,,,<<<<####XXX",
"+++oooo;;;------------::::---->>>>,,,<<<<####XXX",
"%%%....--->>>>@@@@####++++---->>>>--->>>>++++%%%",
"%%%....--->>>>@@@@####++++---->>>>--->>>>++++%%%",
"%%%....--->>>>@@@@####++++---->>>>--->>>>++++%%%",
"%%%....--->>>>@@@@####++++---->>>>--->>>>++++%%%",
"111oooo---****####    XXXX%%%%------->>>>XXXX...",
"111oooo---****####    XXXX%%%%------->>>>XXXX...",
"111oooo---****####    XXXX%%%%------->>>>XXXX...",
"111oooo---****####    XXXX%%%%------->>>>XXXX...",
"###<<<<;;;....OOOO2222    %%%%::::--->>>>    OOO",
"###<<<<;;;....OOOO2222    %%%%::::--->>>>    OOO",
"###<<<<;;;....OOOO2222    %%%%::::--->>>>    OOO",
"@@@++++ooo####....&&&&####2222---->>>----####ooo",
"@@@++++ooo####....&&&&####2222---->>>----####ooo",
"@@@++++ooo####....&&&&####2222---->>>----####ooo",
"@@@++++ooo####....&&&&####2222---->>>----####ooo",
"...++++%%%%%%%....@@@@&&&&%%%%----;;;<<<<@@@@+++",
"...++++%%%%%%%....@@@@&&&&%%%%----;;;<<<<@@@@+++",
"...++++%%%%%%%....@@@@&&&&%%%%----;;;<<<<@@@@+++",
"...++++%%%%%%%....@@@@&&&&%%%%----;;;<<<<@@@@+++",
"...++++   @@@@    ####XXXX>>>>----ooo&&&&XXXX+++",
"...++++   @@@@    ####XXXX>>>>----ooo&&&&XXXX+++",
"...++++   @@@@    ####XXXX>>>>----ooo&&&&XXXX+++",
"...++++   @@@@    ####XXXX>>>>----ooo&&&&XXXX+++",
"%%%@@@@###%%%%XXXX....====----1111@@@....    ...",
"%%%@@@@###%%%%XXXX....====----1111@@@....    ...",
"%%%@@@@###%%%%XXXX....====----1111@@@....    ...",
"%%%@@@@###%%%%XXXX....====----1111@@@....    ...",
"#######%%%    &&&&---->>>>2222XXXX%%%####@@@@+++",
"#######%%%    &&&&---->>>>2222XXXX%%%####@@@@+++",
"#######%%%    &&&&---->>>>2222XXXX%%%####@@@@+++",
"#######%%%    &&&&---->>>>2222XXXX%%%####@@@@+++",
"   ....%%%oooo----****####%%%%++++%%%....%%%%XXX",
"   ....%%%oooo----****####%%%%++++%%%....%%%%XXX",
"   ....%%%oooo----****####%%%%++++%%%....%%%%XXX",
"   ....%%%oooo----****####%%%%++++%%%....%%%%XXX",
"@@@3333222****----....@@@@####    +++@@@@.......",
"@@@3333222****----....@@@@####    +++@@@@.......",
"@@@3333222****----....@@@@####    +++@@@@.......",
"@@@3333222****----....@@@@####    +++@@@@.......",
"###<<<<444----====----****====-------====%%%%@@@",
"###<<<<444----====----****====-------====%%%%@@@",
"###<<<<444----====----****====-------====%%%%@@@",
"###<<<<444----====----****====-------====%%%%@@@",
"%%%oooo---****----------------,,,,>>>----oooo###",
"%%%oooo---****----------------,,,,>>>----oooo###",
"%%%oooo---****----------------,,,,>>>----oooo###",
"%%%oooo---****----------------,,,,>>>----oooo###",
"OOO%%%%%%%<<<<....1111....%%%%%%%%ooo....%%%%OOO",
"OOO%%%%%%%<<<<....1111....%%%%%%%%ooo....%%%%OOO",
"OOO%%%%%%%<<<<....1111....%%%%%%%%ooo....%%%%OOO",
"OOO%%%%%%%<<<<....1111....%%%%%%%%ooo....%%%%OOO"
};
