/* XPM */
static char *_006[] = {
/* columns rows colors chars-per-pixel */
"48 60 26 1 ",
"  c gray87",
". c gray90",
"X c gray89",
"o c #E1E1E1",
"O c #E4E4E4",
"+ c #DFDFDF",
"@ c gray88",
"# c #E6E6E6",
"$ c #D7D7D7",
"% c #E2E2E2",
"& c #DDDDDD",
"* c black",
"= c #060606",
"- c gray91",
"; c #EEEEEE",
": c gainsboro",
"> c #070707",
", c #020202",
"< c gray1",
"1 c gray2",
"2 c #E9E9E9",
"3 c #E7E7E7",
"4 c #EAEAEA",
"5 c #010101",
"6 c #040404",
"7 c gray86",
/* pixels */
"   ....XXXoooo........OOOO++++@@@@@@@###$$$$####",
"   ....XXXoooo........OOOO++++@@@@@@@###$$$$####",
"   ....XXXoooo........OOOO++++@@@@@@@###$$$$####",
"%%%####OOO####&&&&****====********---XXX;;;;%%%%",
"%%%####OOO####&&&&****====********---XXX;;;;%%%%",
"%%%####OOO####&&&&****====********---XXX;;;;%%%%",
"%%%####OOO####&&&&****====********---XXX;;;;%%%%",
"---::::XXXOOOO****>>>>********,,,,***       @@@@",
"---::::XXXOOOO****>>>>********,,,,***       @@@@",
"---::::XXXOOOO****>>>>********,,,,***       @@@@",
"---::::XXXOOOO****>>>>********,,,,***       @@@@",
"%%%....OOO****<<<<@@@@oooo,,,,*******111OOOO....",
"%%%....OOO****<<<<@@@@oooo,,,,*******111OOOO....",
"%%%....OOO****<<<<@@@@oooo,,,,*******111OOOO....",
"OOOoooo*******OOOO@@@@2222%%%%****111***@@@@----",
"OOOoooo*******OOOO@@@@2222%%%%****111***@@@@----",
"OOOoooo*******OOOO@@@@2222%%%%****111***@@@@----",
"OOOoooo*******OOOO@@@@2222%%%%****111***@@@@----",
"ooo....XXX3333%%%%....::::....*******>>>%%%%@@@@",
"ooo....XXX3333%%%%....::::....*******>>>%%%%@@@@",
"ooo....XXX3333%%%%....::::....*******>>>%%%%@@@@",
"ooo....XXX3333%%%%....::::....*******>>>%%%%@@@@",
"ooo----       %%%%4444XXXXOOOO****<<<+++....oooo",
"ooo----       %%%%4444XXXXOOOO****<<<+++....oooo",
"ooo----       %%%%4444XXXXOOOO****<<<+++....oooo",
"ooo----       %%%%4444XXXXOOOO****<<<+++....oooo",
"XXXXXXX333####XXXX@@@@5555****,,,,XXXOOO@@@@OOOO",
"XXXXXXX333####XXXX@@@@5555****,,,,XXXOOO@@@@OOOO",
"XXXXXXX333####XXXX@@@@5555****,,,,XXXOOO@@@@OOOO",
"XXXXXXX333####XXXX@@@@5555****,,,,XXXOOO@@@@OOOO",
"OOOoooo@@@XXXXXXXX****,,,,***********XXX....@@@@",
"OOOoooo@@@XXXXXXXX****,,,,***********XXX....@@@@",
"OOOoooo@@@XXXXXXXX****,,,,***********XXX....@@@@",
"OOOoooo@@@XXXXXXXX****,,,,***********XXX....@@@@",
"XXXOOOOOOOOOOO####3333********5555<<<***####----",
"XXXOOOOOOOOOOO####3333********5555<<<***####----",
"XXXOOOOOOOOOOO####3333********5555<<<***####----",
"XXXOOOOOOOOOOO####3333********5555<<<***####----",
"XXX@@@@OOO        XXXX3333%%%%*******666@@@@oooo",
"XXX@@@@OOO        XXXX3333%%%%*******666@@@@oooo",
"XXX@@@@OOO        XXXX3333%%%%*******666@@@@oooo",
"XXX@@@@OOO        XXXX3333%%%%*******666@@@@oooo",
"OOOXXXX5556666####XXXXooooXXXX6666***,,,OOOO....",
"OOOXXXX5556666####XXXXooooXXXX6666***,,,OOOO....",
"%%%....***5555<<<<XXXX%%%%....,,,,***ooo####....",
"%%%....***5555<<<<XXXX%%%%....,,,,***ooo####....",
"%%%....***5555<<<<XXXX%%%%....,,,,***ooo####....",
"%%%....***5555<<<<XXXX%%%%....,,,,***ooo####....",
"...@@@@---********,,,,%%%%********<<<3337777####",
"...@@@@---********,,,,%%%%********<<<3337777####",
"...@@@@---********,,,,%%%%********<<<3337777####",
"...@@@@---********,,,,%%%%********<<<3337777####",
"oooXXXXOOOOOOO5555****====****5555...XXX%%%%XXXX",
"oooXXXXOOOOOOO5555****====****5555...XXX%%%%XXXX",
"oooXXXXOOOOOOO5555****====****5555...XXX%%%%XXXX",
"oooXXXXOOOOOOO5555****====****5555...XXX%%%%XXXX",
"###OOOOooo3333&&&&%%%%....    @@@@ooo###@@@@++++",
"###OOOOooo3333&&&&%%%%....    @@@@ooo###@@@@++++",
"###OOOOooo3333&&&&%%%%....    @@@@ooo###@@@@++++",
"###OOOOooo3333&&&&%%%%....    @@@@ooo###@@@@++++"
};
