/* XPM */
static char *_005[] = {
/* columns rows colors chars-per-pixel */
"48 60 25 1 ",
"  c gray88",
". c gray89",
"X c #E2E2E2",
"o c #DFDFDF",
"O c #EAEAEA",
"+ c #E6E6E6",
"@ c #E4E4E4",
"# c #E1E1E1",
"$ c #E7E7E7",
"% c gray90",
"& c gainsboro",
"* c #010101",
"= c #040404",
"- c gray1",
"; c gray3",
": c black",
"> c gray87",
", c #020202",
"< c gray91",
"1 c #E9E9E9",
"2 c gray2",
"3 c #060606",
"4 c #DDDDDD",
"5 c #070707",
"6 c gray86",
/* pixels */
"   ....XXXXooooXXXOOOO    ++++    @@@    @@@@###",
"   ....XXXXooooXXXOOOO    ++++    @@@    @@@@###",
"   ....XXXXooooXXXOOOO    ++++    @@@    @@@@###",
"+++XXXX++++$$$$%%%&&&&********====...%%%%++++$$$",
"+++XXXX++++$$$$%%%&&&&********====...%%%%++++$$$",
"+++XXXX++++$$$$%%%&&&&********====...%%%%++++$$$",
"+++XXXX++++$$$$%%%&&&&********====...%%%%++++$$$",
"###........oooo   ----;;;;::::::::@@@>>>>....>>>",
"###........oooo   ----;;;;::::::::@@@>>>>....>>>",
"###........oooo   ----;;;;::::::::@@@>>>>....>>>",
"###........oooo   ----;;;;::::::::@@@>>>>....>>>",
"+++@@@@####@@@@,,,::::::::::::====ooo<<<<XXXX@@@",
"+++@@@@####@@@@,,,::::::::::::====ooo<<<<XXXX@@@",
"+++@@@@####@@@@,,,::::::::::::====ooo<<<<XXXX@@@",
"111XXXX@@@@:::::::::::====::::::::<<<oooo....+++",
"111XXXX@@@@:::::::::::====::::::::<<<oooo....+++",
"111XXXX@@@@:::::::::::====::::::::<<<oooo....+++",
"111XXXX@@@@:::::::::::====::::::::<<<oooo....+++",
"&&&$$$$@@@@::::,,,....::::,,,,====&&&<<<<#######",
"&&&$$$$@@@@::::,,,....::::,,,,====&&&<<<<#######",
"&&&$$$$@@@@::::,,,....::::,,,,====&&&<<<<#######",
"&&&$$$$@@@@::::,,,....::::,,,,====&&&<<<<#######",
"XXX####::::::::XXX####----::::****   ....++++$$$",
"XXX####::::::::XXX####----::::****   ....++++$$$",
"XXX####::::::::XXX####----::::****   ....++++$$$",
"XXX####::::::::XXX####----::::****   ....++++$$$",
"111....,,,,::::@@@++++----::::::::$$$########%%%",
"111....,,,,::::@@@++++----::::::::$$$########%%%",
"111....,,,,::::@@@++++----::::::::$$$########%%%",
"111....,,,,::::@@@++++----::::::::$$$########%%%",
"ooo2222::::++++XXX....::::----2222XXX####@@@@...",
"ooo2222::::++++XXX....::::----2222XXX####@@@@...",
"ooo2222::::++++XXX....::::----2222XXX####@@@@...",
"ooo2222::::++++XXX....::::----2222XXX####@@@@...",
"...::::3333::::,,,****::::****::::***3333,,,,...",
"...::::3333::::,,,****::::****::::***3333,,,,...",
"...::::3333::::,,,****::::****::::***3333,,,,...",
"...::::3333::::,,,****::::****::::***3333,,,,...",
"...2222::::,,,,:::::::,,,,::::----:::::::::::+++",
"...2222::::,,,,:::::::,,,,::::----:::::::::::+++",
"...2222::::,,,,:::::::,,,,::::----:::::::::::+++",
"...2222::::,,,,:::::::,,,,::::----:::::::::::+++",
"   @@@@....####XXX%%%%----::::****%%%XXXXXXXXXXX",
"   @@@@....####XXX%%%%----::::****%%%XXXXXXXXXXX",
"XXX%%%%XXXX####%%%####::::****,,,,   $$$$oooo###",
"XXX%%%%XXXX####%%%####::::****,,,,   $$$$oooo###",
"XXX%%%%XXXX####%%%####::::****,,,,   $$$$oooo###",
"XXX%%%%XXXX####%%%####::::****,,,,   $$$$oooo###",
"@@@111144441111XXXoooo5555::::::::+++XXXX++++@@@",
"@@@111144441111XXXoooo5555::::::::+++XXXX++++@@@",
"@@@111144441111XXXoooo5555::::::::+++XXXX++++@@@",
"@@@111144441111XXXoooo5555::::::::+++XXXX++++@@@",
"###XXXX++++>>>>---::::::::5555:::::::::::####XXX",
"###XXXX++++>>>>---::::::::5555:::::::::::####XXX",
"###XXXX++++>>>>---::::::::5555:::::::::::####XXX",
"###XXXX++++>>>>---::::::::5555:::::::::::####XXX",
"+++XXXX@@@@++++   ++++@@@@6666$$$$<<<++++@@@@+++",
"+++XXXX@@@@++++   ++++@@@@6666$$$$<<<++++@@@@+++",
"+++XXXX@@@@++++   ++++@@@@6666$$$$<<<++++@@@@+++",
"+++XXXX@@@@++++   ++++@@@@6666$$$$<<<++++@@@@+++"
};
