/* XPM */
static char *_004[] = {
/* columns rows colors chars-per-pixel */
"48 60 21 1 ",
"  c #E4E4E4",
". c #E2E2E2",
"X c #E6E6E6",
"o c #DFDFDF",
"O c gray89",
"+ c gray90",
"@ c #E9E9E9",
"# c #E1E1E1",
"$ c black",
"% c #010101",
"& c #020202",
"* c #040404",
"= c #E7E7E7",
"- c #070707",
"; c #060606",
": c gray87",
"> c gray88",
", c #EAEAEA",
"< c gray91",
"1 c gray1",
"2 c #DDDDDD",
/* pixels */
"   ....XXXoooo....    ....OOOO++++oo@@@@....XXXX",
"   ....XXXoooo....    ....OOOO++++oo@@@@....XXXX",
"   ....XXXoooo....    ....OOOO++++oo@@@@....XXXX",
"OOO####$$$%%%%&&&&$$$$$$$$$$$$$$$$**$$$$====++++",
"OOO####$$$%%%%&&&&$$$$$$$$$$$$$$$$**$$$$====++++",
"OOO####$$$%%%%&&&&$$$$$$$$$$$$$$$$**$$$$====++++",
"OOO####$$$%%%%&&&&$$$$$$$$$$$$$$$$**$$$$====++++",
"+++    ***$$$$$$$$$$$$----$$$$&&&&$$;;;;OOOO    ",
"+++    ***$$$$$$$$$$$$----$$$$&&&&$$;;;;OOOO    ",
"+++    ***$$$$$$$$$$$$----$$$$&&&&$$;;;;OOOO    ",
"+++++++:::&&&&&&&&$$$$....>>>>++++  >>>>    ####",
"+++++++:::&&&&&&&&$$$$....>>>>++++  >>>>    ####",
"+++++++:::&&&&&&&&$$$$....>>>>++++  >>>>    ####",
"+++++++:::&&&&&&&&$$$$....>>>>++++  >>>>    ####",
"+++OOOO...$$$$&&&&    ............++    ####++++",
"+++OOOO...$$$$&&&&    ............++    ####++++",
"+++OOOO...$$$$&&&&    ............++    ####++++",
"+++OOOO...$$$$&&&&    ............++    ####++++",
":::,,,,>>>****$$$$++++XXXX>>>><<<<oo++++OOOOoooo",
":::,,,,>>>****$$$$++++XXXX>>>><<<<oo++++OOOOoooo",
":::,,,,>>>****$$$$++++XXXX>>>><<<<oo++++OOOOoooo",
":::,,,,>>>****$$$$++++XXXX>>>><<<<oo++++OOOOoooo",
"###ooooOOO$$$$$$$$$$$$$$$$1111%%%%OOXXXX....<<<<",
"###ooooOOO$$$$$$$$$$$$$$$$1111%%%%OOXXXX....<<<<",
"###ooooOOO$$$$$$$$$$$$$$$$1111%%%%OOXXXX....<<<<",
"###ooooOOO$$$$$$$$$$$$$$$$1111%%%%OOXXXX....<<<<",
"   XXXXXXX$$$$****$$$$;;;;$$$$$$$$-->>>>OOOO####",
"   XXXXXXX$$$$****$$$$;;;;$$$$$$$$-->>>>OOOO####",
"   XXXXXXX$$$$****$$$$;;;;$$$$$$$$-->>>>OOOO####",
"   XXXXXXX$$$$****$$$$;;;;$$$$$$$$-->>>>OOOO####",
"###++++:::$$$$$$$$....    %%%%%%%%$$$$$$====OOOO",
"###++++:::$$$$$$$$....    %%%%%%%%$$$$$$====OOOO",
"###++++:::$$$$$$$$....    %%%%%%%%$$$$$$====OOOO",
"###++++:::$$$$$$$$....    %%%%%%%%$$$$$$====OOOO",
"XXX++++OOO====<<<<>>>>####XXXX&&&&$$;;;;::::OOOO",
"XXX++++OOO====<<<<>>>>####XXXX&&&&$$;;;;::::OOOO",
":::....OOO>>>>OOOO>>>>OOOO####1111$$$$$$    ####",
":::....OOO>>>>OOOO>>>>OOOO####1111$$$$$$    ####",
":::....OOO>>>>OOOO>>>>OOOO####1111$$$$$$    ####",
":::....OOO>>>>OOOO>>>>OOOO####1111$$$$$$    ####",
"OOO====XXXOOOO####====....####$$$$%%$$$$++++    ",
"OOO====XXXOOOO####====....####$$$$%%$$$$++++    ",
"OOO====XXXOOOO####====....####$$$$%%$$$$++++    ",
"OOO====XXXOOOO####====....####$$$$%%$$$$++++    ",
"<<<oooo111$$$$OOOOOOOO    $$$$$$$$**####++++    ",
"<<<oooo111$$$$OOOOOOOO    $$$$$$$$**####++++    ",
"<<<oooo111$$$$OOOOOOOO    $$$$$$$$**####++++    ",
"<<<oooo111$$$$OOOOOOOO    $$$$$$$$**####++++    ",
">>>XXXX$$$1111$$$$&&&&$$$$****%%%%22    >>>>++++",
">>>XXXX$$$1111$$$$&&&&$$$$****%%%%22    >>>>++++",
">>>XXXX$$$1111$$$$&&&&$$$$****%%%%22    >>>>++++",
">>>XXXX$$$1111$$$$&&&&$$$$****%%%%22    >>>>++++",
"===OOOO   $$$$%%%%%%%%$$$$1111....@@XXXX++++....",
"===OOOO   $$$$%%%%%%%%$$$$1111....@@XXXX++++....",
"===OOOO   $$$$%%%%%%%%$$$$1111....@@XXXX++++....",
"===OOOO   $$$$%%%%%%%%$$$$1111....@@XXXX++++....",
"...ooooooo........####====2222====  ::::>>>>....",
"...ooooooo........####====2222====  ::::>>>>....",
"...ooooooo........####====2222====  ::::>>>>....",
"...ooooooo........####====2222====  ::::>>>>...."
};
