/* XPM */
static char *_003[] = {
/* columns rows colors chars-per-pixel */
"48 60 23 1 ",
"  c #DDDDDD",
". c #E4E4E4",
"X c #E2E2E2",
"o c gray89",
"O c #E1E1E1",
"+ c gray87",
"@ c #E9E9E9",
"# c #E7E7E7",
"$ c #EAEAEA",
"% c gray88",
"& c #E6E6E6",
"* c black",
"= c #060606",
"- c #020202",
"; c #010101",
": c gray91",
"> c gray90",
", c #DFDFDF",
"< c #040404",
"1 c gray92",
"2 c gray1",
"3 c gray86",
"4 c gray93",
/* pixels */
"  ....XXXXoooo....OOOO....    ++@@@@........####",
"  ....XXXXoooo....OOOO....    ++@@@@........####",
"  ....XXXXoooo....OOOO....    ++@@@@........####",
"$$oooo%%%%####OOOO####&&&&****==****    @@@@OOOO",
"$$oooo%%%%####OOOO####&&&&****==****    @@@@OOOO",
"$$oooo%%%%####OOOO####&&&&****==****    @@@@OOOO",
"$$oooo%%%%####OOOO####&&&&****==****    @@@@OOOO",
"XXooooooooOOOO%%%%oooo****----;;    ::::XXXX>>>>",
"XXooooooooOOOO%%%%oooo****----;;    ::::XXXX>>>>",
"XXooooooooOOOO%%%%oooo****----;;    ::::XXXX>>>>",
"XXooooooooOOOO%%%%oooo****----;;    ::::XXXX>>>>",
"OOXXXX&&&&ooooXXXX;;;;----****,,@@@@OOOOOOOO>>>>",
"OOXXXX&&&&ooooXXXX;;;;----****,,@@@@OOOOOOOO>>>>",
"OOXXXX&&&&ooooXXXX;;;;----****,,@@@@OOOOOOOO>>>>",
"oo,,,,OOOO$$$$****<<<<****&&&&ooXXXXXXXX&&&&>>>>",
"oo,,,,OOOO$$$$****<<<<****&&&&ooXXXXXXXX&&&&>>>>",
"oo,,,,OOOO$$$$****<<<<****&&&&ooXXXXXXXX&&&&>>>>",
"oo,,,,OOOO$$$$****<<<<****&&&&ooXXXXXXXX&&&&>>>>",
"%%1111OOOO,,,,----****>>>>,,,,oo$$$$%%%%OOOO,,,,",
"%%1111OOOO,,,,----****>>>>,,,,oo$$$$%%%%OOOO,,,,",
"%%1111OOOO,,,,----****>>>>,,,,oo$$$$%%%%OOOO,,,,",
"%%1111OOOO,,,,----****>>>>,,,,oo$$$$%%%%OOOO,,,,",
">>%%%%OOOO<<<<********....;;;;--****....OOOO&&&&",
">>%%%%OOOO<<<<********....;;;;--****....OOOO&&&&",
">>%%%%OOOO<<<<********....;;;;--****....OOOO&&&&",
">>%%%%OOOO<<<<********....;;;;--****....OOOO&&&&",
"oo::::OOOO2222;;;;****----******;;;;<<<<....XXXX",
"oo::::OOOO2222;;;;****----******;;;;<<<<....XXXX",
"oo::::OOOO2222;;;;****----******;;;;<<<<....XXXX",
"oo::::OOOO2222;;;;****----******;;;;<<<<....XXXX",
"XX....oooo********222233334444**----****ooooOOOO",
"XX....oooo********222233334444**----****ooooOOOO",
"XX....oooo********222233334444**----****ooooOOOO",
"XX....oooo********222233334444**----****ooooOOOO",
"::++++>>>>;;;;********####>>>>**;;;;2222OOOO####",
"::++++>>>>;;;;********####>>>>**;;;;2222OOOO####",
"::++++>>>>;;;;********####>>>>**;;;;2222OOOO####",
"::++++>>>>;;;;********####>>>>**;;;;2222OOOO####",
",,>>>>oooo----****<<<<,,,,%%%%;;****----........",
",,>>>>oooo----****<<<<,,,,%%%%;;****----........",
",,>>>>oooo----****<<<<,,,,%%%%;;****----........",
",,>>>>oooo----****<<<<,,,,%%%%;;****----........",
"..XXXX....****----****....>>>>;;********....oooo",
"..XXXX....****----****....>>>>;;********....oooo",
"..........****;;;;;;;;OOOO####--****2222,,,,....",
"..........****;;;;;;;;OOOO####--****2222,,,,....",
"..........****;;;;;;;;OOOO####--****2222,,,,....",
"..........****;;;;;;;;OOOO####--****2222,,,,....",
"OOooooOOOO....****2222>>>>oooo**2222XXXX........",
"OOooooOOOO....****2222>>>>oooo**2222XXXX........",
"OOooooOOOO....****2222>>>>oooo**2222XXXX........",
"OOooooOOOO....****2222>>>>oooo**2222XXXX........",
">>OOOO....####,,,,**************%%%%&&&&%%%%####",
">>OOOO....####,,,,**************%%%%&&&&%%%%####",
">>OOOO....####,,,,**************%%%%&&&&%%%%####",
">>OOOO....####,,,,**************%%%%&&&&%%%%####",
"oo&&&&    oooo>>>>&&&&....OOOOXX>>>>OOOO....++++",
"oo&&&&    oooo>>>>&&&&....OOOOXX>>>>OOOO....++++",
"oo&&&&    oooo>>>>&&&&....OOOOXX>>>>OOOO....++++",
"oo&&&&    oooo>>>>&&&&....OOOOXX>>>>OOOO....++++"
};
