/* XPM */
static char *_002[] = {
/* columns rows colors chars-per-pixel */
"48 60 24 1 ",
"  c gray90",
". c gray89",
"X c #E6E6E6",
"o c gray88",
"O c #E4E4E4",
"+ c #E9E9E9",
"@ c #E2E2E2",
"# c black",
"$ c gray1",
"% c #010101",
"& c #040404",
"* c gray2",
"= c gray91",
"- c #E7E7E7",
"; c #E1E1E1",
": c #DFDFDF",
"> c gainsboro",
", c gray3",
"< c #DDDDDD",
"1 c #020202",
"2 c gray87",
"3 c gray86",
"4 c #EAEAEA",
"5 c #DADADA",
/* pixels */
"   ....XXX....XXXXooooXXXX    OOOO...OOOoooo++++",
"   ....XXX....XXXXooooXXXX    OOOO...OOOoooo++++",
"   ....XXX....XXXXooooXXXX    OOOO...OOOoooo++++",
"OOO@@@@###########$$$$###############$$$oooo@@@@",
"OOO@@@@###########$$$$###############$$$oooo@@@@",
"OOO@@@@###########$$$$###############$$$oooo@@@@",
"OOO@@@@###########$$$$###############$$$oooo@@@@",
"...oooo%%%&&&&########&&&&****####&&&###====OOOO",
"...oooo%%%&&&&########&&&&****####&&&###====OOOO",
"...oooo%%%&&&&########&&&&****####&&&###====OOOO",
"...oooo%%%&&&&########&&&&****####&&&###====OOOO",
"ooo----#######@@@@OOOO;;;;oooo    ###%%%::::    ",
"ooo----#######@@@@OOOO;;;;oooo    ###%%%::::    ",
"ooo----#######@@@@OOOO;;;;oooo    ###%%%::::    ",
"ooo----#######@@@@OOOO;;;;oooo    ###%%%::::    ",
"OOO....###&&&&....XXXX....@@@@####&&&###OOOO;;;;",
"OOO....###&&&&....XXXX....@@@@####&&&###OOOO;;;;",
"OOO....###&&&&....XXXX....@@@@####&&&###OOOO;;;;",
";;;OOOO###>>>>OOOOooooOOOO;;;;,,,,###;;;++++;;;;",
";;;OOOO###>>>>OOOOooooOOOO;;;;,,,,###;;;++++;;;;",
";;;OOOO###>>>>OOOOooooOOOO;;;;,,,,###;;;++++;;;;",
";;;OOOO###>>>>OOOOooooOOOO;;;;,,,,###;;;++++;;;;",
"OOO    XXX----;;;;--------$$$$####@@@ooo@@@@....",
"OOO    XXX----;;;;--------$$$$####@@@ooo@@@@....",
"OOO    XXX----;;;;--------$$$$####@@@ooo@@@@....",
"OOO    XXX----;;;;--------$$$$####@@@ooo@@@@....",
"@@@;;;;@@@;;;;    oooo<<<<####&&&&---@@@........",
"@@@;;;;@@@;;;;    oooo<<<<####&&&&---@@@........",
"@@@;;;;@@@;;;;    oooo<<<<####&&&&---@@@........",
"@@@;;;;@@@;;;;    oooo<<<<####&&&&---@@@........",
"   OOOO:::====OOOO----1111####    ooo@@@----oooo",
"   OOOO:::====OOOO----1111####    ooo@@@----oooo",
"   OOOO:::====OOOO----1111####    ooo@@@----oooo",
"   OOOO:::====OOOO----1111####    ooo@@@----oooo",
"...;;;;   OOOO::::    ########@@@@@@@XXX@@@@;;;;",
"...;;;;   OOOO::::    ########@@@@@@@XXX@@@@;;;;",
"...;;;;   OOOO::::    ########@@@@@@@XXX@@@@;;;;",
"...;;;;   OOOO::::    ########@@@@@@@XXX@@@@;;;;",
"...;;;;:::----;;;;####%%%%----2222...;;;----;;;;",
"...;;;;:::----;;;;####%%%%----2222...;;;----;;;;",
"...;;;;:::----;;;;####%%%%----2222...;;;----;;;;",
"...;;;;:::----;;;;####%%%%----2222...;;;----;;;;",
":::++++;;;........%%%%%%%%;;;;....   XXX<<<<XXXX",
":::++++;;;........%%%%%%%%;;;;....   XXX<<<<XXXX",
":::++++;;;........%%%%%%%%;;;;....   XXX<<<<XXXX",
":::++++;;;........%%%%%%%%;;;;....   XXX<<<<XXXX",
"ooo@@@@OOO....####%%%%@@@@....@@@@   ooo    ....",
"ooo@@@@OOO....####%%%%@@@@....@@@@   ooo    ....",
"XXX@@@@<<<OOOO$$$$####====    .......===@@@@2222",
"XXX@@@@<<<OOOO$$$$####====    .......===@@@@2222",
"XXX@@@@<<<OOOO$$$$####====    .......===@@@@2222",
"XXX@@@@<<<OOOO$$$$####====    .......===@@@@2222",
"   OOOO+++****########ooooXXXX@@@@oooXXX........",
"   OOOO+++****########ooooXXXX@@@@oooXXX........",
"   OOOO+++****########ooooXXXX@@@@oooXXX........",
"   OOOO+++****########ooooXXXX@@@@oooXXX........",
"<<<....;;;3333XXXX====....oooo....444555OOOOXXXX",
"<<<....;;;3333XXXX====....oooo....444555OOOOXXXX",
"<<<....;;;3333XXXX====....oooo....444555OOOOXXXX",
"<<<....;;;3333XXXX====....oooo....444555OOOOXXXX"
};
