/* XPM */
static char *_001[] = {
/* columns rows colors chars-per-pixel */
"48 60 29 1 ",
"  c gray90",
". c #E2E2E2",
"X c gray89",
"o c #E7E7E7",
"O c gainsboro",
"+ c #E4E4E4",
"@ c #E9E9E9",
"# c #DDDDDD",
"$ c black",
"% c #010101",
"& c #020202",
"* c gray1",
"= c gray88",
"- c #E6E6E6",
"; c #EAEAEA",
": c #E1E1E1",
"> c gray86",
", c #040404",
"< c #DFDFDF",
"1 c gray91",
"2 c gray3",
"3 c #070707",
"4 c #060606",
"5 c gray87",
"6 c #ECECEC",
"7 c gray92",
"8 c #0B0B0B",
"9 c gray2",
"0 c gray93",
/* pixels */
"   .......XXXXooooXXXX    OOOOXXXX+++@@@####++++",
"   .......XXXXooooXXXX    OOOOXXXX+++@@@####++++",
"   .......XXXXooooXXXX    OOOOXXXX+++@@@####++++",
"OOO....XXX++++$$$$%%%%&&&&****%%%%   ===----====",
"OOO....XXX++++$$$$%%%%&&&&****%%%%   ===----====",
"OOO....XXX++++$$$$%%%%&&&&****%%%%   ===----====",
"OOO....XXX++++$$$$%%%%&&&&****%%%%   ===----====",
"XXX;;;;:::$$$$****    ---->>>>$$$$,,,<<<....1111",
"XXX;;;;:::$$$$****    ---->>>>$$$$,,,<<<....1111",
"XXX;;;;:::$$$$****    ---->>>>$$$$,,,<<<....1111",
"XXX;;;;:::$$$$****    ---->>>>$$$$,,,<<<....1111",
"+++====$$$,,,,$$$$....====oooo****$$$---XXXX::::",
"+++====$$$,,,,$$$$....====oooo****$$$---XXXX::::",
"+++====$$$,,,,$$$$....====oooo****$$$---XXXX::::",
"+++====$$$,,,,$$$$....====oooo****$$$---XXXX::::",
"+++XXXX$$$,,,,$$$$....XXXX1111%%%%$$$+++    ====",
"+++XXXX$$$,,,,$$$$....XXXX1111%%%%$$$+++    ====",
"+++XXXX$$$,,,,$$$$....XXXX1111%%%%$$$+++    ====",
"   ::::222$$$$3333$$$$........$$$$444<<<oooo<<<<",
"   ::::222$$$$3333$$$$........$$$$444<<<oooo<<<<",
"   ::::222$$$$3333$$$$........$$$$444<<<oooo<<<<",
"   ::::222$$$$3333$$$$........$$$$444<<<oooo<<<<",
"XXX....555&&&&$$$$$$$$$$$$%%%%<<<<..........6666",
"XXX....555&&&&$$$$$$$$$$$$%%%%<<<<..........6666",
"XXX....555&&&&$$$$$$$$$$$$%%%%<<<<..........6666",
"XXX....555&&&&$$$$$$$$$$$$%%%%<<<<..........6666",
"XXX++++...<<<<%%%%%%%%$$$$****$$$$---   ====....",
"XXX++++...<<<<%%%%%%%%$$$$****$$$$---   ====....",
"XXX++++...<<<<%%%%%%%%$$$$****$$$$---   ====....",
"XXX++++...<<<<%%%%%%%%$$$$****$$$$---   ====....",
"   ====---    $$$$$$$$$$$$$$$$$$$$%%%XXX    ====",
"   ====---    $$$$$$$$$$$$$$$$$$$$%%%XXX    ====",
"   ====---    $$$$$$$$$$$$$$$$$$$$%%%XXX    ====",
"   ====---    $$$$$$$$$$$$$$$$$$$$%%%XXX    ====",
":::====777$$$$$$$$ooooXXXX%%%%$$$$$$$$$$++++oooo",
":::====777$$$$$$$$ooooXXXX%%%%$$$$$$$$$$++++oooo",
":::====777$$$$$$$$ooooXXXX%%%%$$$$$$$$$$++++oooo",
":::====777$$$$$$$$ooooXXXX%%%%$$$$$$$$$$++++oooo",
"111----$$$$$$$88885555::::@@@@$$$$$$$$$$....XXXX",
"111----$$$$$$$88885555::::@@@@$$$$$$$$$$....XXXX",
"111----$$$$$$$88885555::::@@@@$$$$$$$$$$....XXXX",
"111----$$$$$$$88885555::::@@@@$$$$$$$$$$....XXXX",
":::    $$$&&&&$$$$++++    <<<<&&&&&&&$$$....XXXX",
":::    $$$&&&&$$$$++++    <<<<&&&&&&&$$$....XXXX",
":::    $$$&&&&$$$$++++    <<<<&&&&&&&$$$....XXXX",
":::    $$$&&&&$$$$++++    <<<<&&&&&&&$$$....XXXX",
"ooo====$$$****$$$$++++    5555,,,,%%%%%%====@@@@",
"ooo====$$$****$$$$++++    5555,,,,%%%%%%====@@@@",
"<<<1111ooo$$$$%%%%&&&&....$$$$9999$$$XXX1111>>>>",
"<<<1111ooo$$$$%%%%&&&&....$$$$9999$$$XXX1111>>>>",
"<<<1111ooo$$$$%%%%&&&&....$$$$9999$$$XXX1111>>>>",
"<<<1111ooo$$$$%%%%&&&&....$$$$9999$$$XXX1111>>>>",
"ooo<<<<###0000$$$$&&&&,,,,%%%%####<<<ooo::::....",
"ooo<<<<###0000$$$$&&&&,,,,%%%%####<<<ooo::::....",
"ooo<<<<###0000$$$$&&&&,,,,%%%%####<<<ooo::::....",
"ooo<<<<###0000$$$$&&&&,,,,%%%%####<<<ooo::::....",
"+++++++oooOOOOXXXX<<<<5555----    ooo+++<<<<    ",
"+++++++oooOOOOXXXX<<<<5555----    ooo+++<<<<    ",
"+++++++oooOOOOXXXX<<<<5555----    ooo+++<<<<    ",
"+++++++oooOOOOXXXX<<<<5555----    ooo+++<<<<    "
};
