/* XPM */
static char *_000[] = {
/* columns rows colors chars-per-pixel */
"48 60 25 1 ",
"  c #E4E4E4",
". c #E6E6E6",
"X c #DFDFDF",
"o c gray89",
"O c gray90",
"+ c #DDDDDD",
"@ c #E2E2E2",
"# c gray87",
"$ c #E1E1E1",
"% c #E7E7E7",
"& c gray91",
"* c black",
"= c gray3",
"- c #010101",
"; c #020202",
": c gray2",
"> c gray88",
", c gray1",
"< c #040404",
"1 c #E9E9E9",
"2 c gray92",
"3 c #060606",
"4 c #EAEAEA",
"5 c gainsboro",
"6 c gray86",
/* pixels */
"   ....XXXoooo    OOOO++++oooo@@@@@@@oooOOOOOOOO",
"   ....XXXoooo    OOOO++++oooo@@@@@@@oooOOOOOOOO",
"   ....XXXoooo    OOOO++++oooo@@@@@@@oooOOOOOOOO",
"###$$$$%%%####&&&&****====****----&&&ooo$$$$$$$$",
"###$$$$%%%####&&&&****====****----&&&ooo$$$$$$$$",
"###$$$$%%%####&&&&****====****----&&&ooo$$$$$$$$",
"###$$$$%%%####&&&&****====****----&&&ooo$$$$$$$$",
"   oooo...oooo********$$$$&&&&*******###&&&&$$$$",
"   oooo...oooo********$$$$&&&&*******###&&&&$$$$",
"   oooo...oooo********$$$$&&&&*******###&&&&$$$$",
"   oooo...oooo********$$$$&&&&*******###&&&&$$$$",
"OOO$$$$ooo****;;;;::::XXXX>>>>,,,,***;;;@@@@    ",
"OOO$$$$ooo****;;;;::::XXXX>>>>,,,,***;;;@@@@    ",
"OOO$$$$ooo****;;;;::::XXXX>>>>,,,,***;;;@@@@    ",
"OOO$$$$ooo****;;;;::::XXXX>>>>,,,,***;;;@@@@    ",
"OOO    @@@<<<<********OOOO$$$$*******<<<$$$$OOOO",
"OOO    @@@<<<<********OOOO$$$$*******<<<$$$$OOOO",
"OOO    @@@<<<<********OOOO$$$$*******<<<$$$$OOOO",
"111>>>>...********;;;;++++&&&&----,,,***    XXXX",
"111>>>>...********;;;;++++&&&&----,,,***    XXXX",
"111>>>>...********;;;;++++&&&&----,,,***    XXXX",
"111>>>>...********;;;;++++&&&&----,,,***    XXXX",
"...OOOO>>>----********@@@@@@@@**********%%%%&&&&",
"...OOOO>>>----********@@@@@@@@**********%%%%&&&&",
"...OOOO>>>----********@@@@@@@@**********%%%%&&&&",
"...OOOO>>>----********@@@@@@@@**********%%%%&&&&",
"ooo....+++;;;;****::::oooo####:::::::***....####",
"ooo....+++;;;;****::::oooo####:::::::***....####",
"ooo....+++;;;;****::::oooo####:::::::***....####",
"ooo....+++;;;;****::::oooo####:::::::***....####",
"...$$$$222$$$$********,,,,***********---$$$$    ",
"...$$$$222$$$$********,,,,***********---$$$$    ",
"...$$$$222$$$$********,,,,***********---$$$$    ",
"...$$$$222$$$$********,,,,***********---$$$$    ",
"oooOOOO$$$        ****3333    ,,,,******OOOO$$$$",
"oooOOOO$$$        ****3333    ,,,,******OOOO$$$$",
"oooOOOO$$$        ****3333    ,,,,******OOOO$$$$",
"oooOOOO$$$        ****3333    ,,,,******OOOO$$$$",
"444####ooo$$$$    ....####@@@@****;;;%%%5555....",
"444####ooo$$$$    ....####@@@@****;;;%%%5555....",
"444####ooo$$$$    ....####@@@@****;;;%%%5555....",
"444####ooo$$$$    ....####@@@@****;;;%%%5555....",
"+++....ooo@@@@    $$$$%%%%****,,,,***$$$%%%%>>>>",
"+++....ooo@@@@    $$$$%%%%****,,,,***$$$%%%%>>>>",
"+++....ooo@@@@    $$$$%%%%****,,,,***$$$%%%%>>>>",
"+++....ooo@@@@    $$$$%%%%****,,,,***$$$%%%%>>>>",
"@@@    $$$&&&&@@@@>>>>----********111OOO>>>>%%%%",
"@@@    $$$&&&&@@@@>>>>----********111OOO>>>>%%%%",
"ooo....$$$6666....****;;;;****4444666   OOOO>>>>",
"ooo....$$$6666....****;;;;****4444666   OOOO>>>>",
"ooo....$$$6666....****;;;;****4444666   OOOO>>>>",
"ooo....$$$6666....****;;;;****4444666   OOOO>>>>",
"ooo$$$$1114444************>>>>$$$$$$$...>>>>....",
"ooo$$$$1114444************>>>>$$$$$$$...>>>>....",
"ooo$$$$1114444************>>>>$$$$$$$...>>>>....",
"ooo$$$$1114444************>>>>$$$$$$$...>>>>....",
"###ooooXXX$$$$oooo>>>>    &&&&oooo222$$$>>>>oooo",
"###ooooXXX$$$$oooo>>>>    &&&&oooo222$$$>>>>oooo",
"###ooooXXX$$$$oooo>>>>    &&&&oooo222$$$>>>>oooo",
"###ooooXXX$$$$oooo>>>>    &&&&oooo222$$$>>>>oooo"
};
