/* XPM */
static char *_000[] = {
/* columns rows colors chars-per-pixel */
"150 72 74 1 ",
"  c DimGray",
". c gray42",
"X c gray40",
"o c #6C6C6C",
"O c #656565",
"+ c #6F6F6F",
"@ c #6A6A6A",
"# c #6D6D6D",
"$ c gray39",
"% c #686868",
"& c #646464",
"* c gray38",
"= c gray43",
"- c #676767",
"; c #060606",
": c #BBBBBB",
"> c gray75",
", c gray",
"< c gray73",
"1 c gray74",
"2 c #B9B9B9",
"3 c gray76",
"4 c #C3C3C3",
"5 c #B6B6B6",
"6 c #BCBCBC",
"7 c #C1C1C1",
"8 c gray77",
"9 c gray72",
"0 c #313131",
"q c black",
"w c #C0C0C0",
"e c #B7B7B7",
"r c #272727",
"t c #020202",
"y c gray16",
"u c #282828",
"i c gray18",
"p c gray17",
"a c gray19",
"s c #2F2F2F",
"d c #343434",
"f c #2D2D2D",
"g c #323232",
"h c #2C2C2C",
"j c #2A2A2A",
"k c gray1",
"l c #E6E6E6",
"z c #E2E2E2",
"x c #DFDFDF",
"c c gray88",
"v c #E7E7E7",
"b c gray90",
"n c gray89",
"m c #E1E1E1",
"M c gainsboro",
"N c #252525",
"B c gray87",
"V c #E4E4E4",
"C c #EAEAEA",
"Z c gray91",
"A c #D7D7D7",
"S c #DDDDDD",
"D c #DADADA",
"F c #E9E9E9",
"G c gray71",
"H c gray2",
"J c #626262",
"K c gray44",
"L c gray93",
"P c gray86",
"I c gray92",
"U c #717171",
"Y c #B2B2B2",
"T c #C5C5C5",
/* pixels */
"   ...   ...XXX   ooXXXoooOOOOOO+++@@@OOOoooXXX##$$$oo%%......   @@@@@@   .@@@   @@@&&&...oo***+++   %%%...   ......@@@OOOXXX===%%%%###XXX%%%@@@---;;;",
"   ...   ...XXX   ooXXXoooOOOOOO+++@@@OOOoooXXX##$$$oo%%......   @@@@@@   .@@@   @@@&&&...oo***+++   %%%...   ......@@@OOOXXX===%%%%###XXX%%%@@@---;;;",
"   ...   ...XXX   ooXXXoooOOOOOO+++@@@OOOoooXXX##$$$oo%%......   @@@@@@   .@@@   @@@&&&...oo***+++   %%%...   ......@@@OOOXXX===%%%%###XXX%%%@@@---;;;",
"ooo:::>>>:::>>>,,,<<111222333444555666>>>222333::7776666111>>>222111:::>>>6::::::>>>777666>>888555::::::111555666111222333>>>9997776222>>>,,,:::000qqq",
"ooo:::>>>:::>>>,,,<<111222333444555666>>>222333::7776666111>>>222111:::>>>6::::::>>>777666>>888555::::::111555666111222333>>>9997776222>>>,,,:::000qqq",
"ooo:::>>>:::>>>,,,<<111222333444555666>>>222333::7776666111>>>222111:::>>>6::::::>>>777666>>888555::::::111555666111222333>>>9997776222>>>,,,:::000qqq",
"   <<<666,,,www666<<,,,>>>999111:::www999,,,999>>eee>>66666222333777111<<<w,,,888eee666<<<22:::>>>333666,,,www:::>>>111<<<666,,,9991777:::666>>>rrrttt",
"   <<<666,,,www666<<,,,>>>999111:::www999,,,999>>eee>>66666222333777111<<<w,,,888eee666<<<22:::>>>333666,,,www:::>>>111<<<666,,,9991777:::666>>>rrrttt",
"   <<<666,,,www666<<,,,>>>999111:::www999,,,999>>eee>>66666222333777111<<<w,,,888eee666<<<22:::>>>333666,,,www:::>>>111<<<666,,,9991777:::666>>>rrrttt",
"@@@111777yyyuuuiiippaaappppppsssssspppsssppp000yydddppffiiigggrrruuuhhh000rpppuuusssjjjsssppssspppyyyyyyaaajjjyyysssyyyiiifffaaaiiisppphhh666666ssskkk",
"@@@111777yyyuuuiiippaaappppppsssssspppsssppp000yydddppffiiigggrrruuuhhh000rpppuuusssjjjsssppssspppyyyyyyaaajjjyyysssyyyiiifffaaaiiisppphhh666666ssskkk",
"@@@111777yyyuuuiiippaaappppppsssssspppsssppp000yydddppffiiigggrrruuuhhh000rpppuuusssjjjsssppssspppyyyyyyaaajjjyyysssyyyiiifffaaaiiisppphhh666666ssskkk",
"OOO111666hhhlllzzzxxccczzzvvvxxxbbbnnnmmmnnnMMMzz...NNffBBBVVVzzzvvvlllmmmblllVVVzzzbbbmmmmmooojjjCCCMMMVVVnnnZZZMMMZZZzzzcccccclllAlll   ,,,111pppqqq",
"OOO111666hhhlllzzzxxccczzzvvvxxxbbbnnnmmmnnnMMMzz...NNffBBBVVVzzzvvvlllmmmbbbVnVVzzzbbbmmmmmooojjjCCCMMMVVVnnnZZvBBSvvvzzzmmmmcclllDlll   ,,,111pppqqq",
"OOO111666hhhlllzzzxxccmnnzlllcccbbbnnnnzmnnnMMMzz...NNffBBBVVVzzzvvvlllmznnnnnnnnnzzbbbmmmmmooojjjCCCMMMVVVnnnvVnnnnnnnnnnnnnnzmlbnnnbl   ,,,111pppqqq",
"...wwwwwwiiixxxVVVnnZVnnnzznzznnnznnnnnnmZZZZZZbb%%%ssppZZZVVVcccnnncccmnnnnnnnnnnnVmmmzzzCC$$$iiiBBBFFFVVVmmmnnnnnnnnnnnnnnnnnnnnnnnnzOOO>>>:::fffttt",
"...wwwwwwiiixxxVVVnnlnnnnnnnnnnnnnnnnnnnzZZZZZZbb%%%ssppZZZVVVcccnnncccnnnnnnnnnnnnVmmmzzzCC$$$iiiBBBFFFVVVmmznnnnnnnnnnnnnnnnnnnnnnnnzOOO>>>:::fffttt",
"...wwwwwwiiixxxVVnnnnnnnnnnnnnnnnnnnnnnnnVVlZZZbb%%%ssppZZZVVVcccnnnccznnnnnnnnnnnnVmmmzzzCC$$$iiiBBBFFFVVVznnnnnnnnnnnnnnnnnnnnnnnnnnzOOO>>>:::fffttt",
"oooeee:::uuubbbcmnnnnnnnnnnnnnnnnnnnnnnnnnnnzmmxx###pphhBBBbbbbbbVVVnnnnnnnnnnnnnnnmnnnZZZMM   ffflllnnnzznnnnnnnnnnnnnnnnnnnnnnnnnnnzcooo777666jjjqqq",
"---:::333pppVVVzznnnnnnnnnnnnnnnnnnnnnnnnnnnnbbVV@@@iifflllzzznnnzznnnnnnnnnnnnnnnnnmmmcccFF%%%pppbbbcccVnnnnnnnnnnnnnnnnnnnnnnnnnnnnVb###GGG>>>hhhHHH",
"---:::333pppVVnznnnnnnnnnnnnnnnnnnnnnnnnnnnnnbbVV@@@iifflllzzznnnznnnnnnnnnnnnnnnnnnmmmcccFF%%%pppbbbcccVnnnnnnnnnnnnnnnnnnnnnnnnnnnnbb###GGG>>>hhhHHH",
"---:::333pppVVVznnnnnnnnnnmznnnnnnnnnnnnnnnnnbbVV@@@iifflllzzznnnnnnnnnnnnnnnnnnnnnnmmmcccFF%%%pppbbbcccVVnnnnnnnnnnnnnnnnnnnnnnnnnnVbb###GGG>>>hhhHHH",
"   888:::yyyFFVnnnnnnnnnnnlVnnnnnnnnnnnnnnnnzxxzz...jjhhcccZZZccznnnnnnnnnnnnnnnBnVVVVVVVVzzXXXfffCCCBBBzznnnnnnnnnnnnnnnnnnnnnnnnnnzzz...>>>:::hhhqqq",
"   888:::yyyFFVnnnnnnnnnnnVVnnnnnnnnnnnnnnnnzcxzz...jjhhcccZZZcmnnnnnnnnnnnnnnnnnnnVVVVVVVzzXXXfffCCCBBBzznnnnnnnnnnnnVzznnnnnnnnnnnzzz...>>>:::hhhqqq",
"   888:::yyyFZnnnnnnnnnnnnnnnnnnnnnnnnnnnnnnnnxzz...jjhhcccZZvznnnnnnnnnnnnnnnnnnnnVVVVVVVzzXXXfffCCCBBBznnnnnnnnnnnnnlzznnnnnnnnnnnzzz...>>>:::hhhqqq",
"OOO222111hhhmmnnnnnnnnnnnnnnnnnnnnnnnnnnnnnnnnbvvJJJaaggxxxzznnnnnnnnnnnnnnnnnnnnnnxZZZBBBvv###yyyVVVCCCnnnnnnnnnnnnnnnVVnnnnnnnnnnnVVVOOO777111hhhqqq",
"OOO222111hhhmmznnnnnnnnnnnnnnnnnnnnnnnnnnnnnnnbvvJJJaaggxxxzznnnnnnnnnnnnnnnnnnnnnnxZZZBBBvv###yyyVVVCCCnnnnnnnnnnnnnnnVVnnnnnnnnnnnVVVOOO777111hhhqqq",
"OOO222111hhhmmmznnnnnnnnnnnnnnnnnnnnnnnnnnnnnnbvvJJJaaggxxxzznnnnnnnzxnnnnnnnnnnnnnxZZZBBBvv###yyyVVVCCCnnnnnnnnznnnnnnVVnnnnnnnnnnnVVVOOO777111hhhqqq",
"KKK666666gggnnnbnnnnnnnccnVnnnnnnnnnnnnnnnnnnnmcc===ppuulllVVnnnnnnnnVnnnnznnnnnnnnmnnnbbbmm---iiibbbMMMVVnnnnnznnnnnncnnnnnnnnnnnnVSSS+++:::<<<hhhqqq",
"KKK666666gggnnnbbnnnzxzzzzZvvmmznnnnnnnnnnnnnnmcc===ppuulllVVnnnnnnnnbbzznnnnnnnnnnmnnnbbbmm---iiibbbMMMVVnnnnnnnnnnnnznnnnnnnnnnnnVSSS+++:::<<<hhhqqq",
"KKK666666gggnnnbbbcmmmmzzzZZZmmznnnnnnnznnnnnnmcc===ppuulllVVnnnnnnnnnVzznnnnnnnnnnmnnnbbbmm---iiibbbMMMVVVBnnnnnnnnnnnnnnnnnnnnnnnVSSS+++:::<<<hhhqqq",
"$$$333:::uuuzzzbbbVVVVVzzznnnZZlnnnnnnnnnnnnnnnbb&&&gg00SSScmnnnnnnnnnnnnnnnnnnnnnVvmmmVVVbb---ffflllLLLmmnznnnnnnnnnnnnnnnnnnnnnnnnnnn   666333hhhqqq",
"$$$333:::uuuzzzbbbVVVVVzzznnnZZvnnnnnnnnnnnnnnnbb&&&gg00SSBznnnnnnnnnnnnnnnnnnnnnnbvmmmVVVbb---ffflllLLLmznnnnnnnnnnnnnnnnnnnnnnnnnnnnn   666333hhhqqq",
"$$$333:::uuuzzzbbbVVVVVzzznnnZZvnnnnnnnnnnnnnnnbb&&&gg00SSmnnnnnnnnnnnnnnnnnnnnnnnlvmmmVVVbb---ffflllLLLmnnnnnnnnnnnnnnnnnnnnnnnnnnnnnn   666333hhhqqq",
"+++<<<333jjjzzzbbbllnnnlllmmmxxznnnnnnnnnnVvxxxbbOOOffrrFZVnnnnnnnnnnnnnnnnnnnnnnnzmbbbzzzzz@@@pppbbbSSSvVnnnnnnnnnnnnnnnnnnnnnnnnnzZZZ   <<<222hhhqqq",
"+++<<<333jjjzzzbbbllnnnlllmmmxznnnnnnnnnnbZZxxxbbOOOffrrFZnnnnnnnnnnnnnnnnnnnnnnnnnnnnnnnzzz@@@pppbbbSSSvlVnnnnnnnnnnnnnnnnnnnnnnnnzZZZ   <<<222hhhqqq",
"+++<<<333jjjzzzbbbllnnnlllmmmznnnnnnnnnzmZZZxxxbbOOOffrrFZnnnnnnnnnnnnnnnnnnnnnnnnnnnnnnnnzz@@@pppbbbSSSvvvnnnnnnnnnnnnnnnnnnnnnnnnzZZZ   <<<222hhhqqq",
"OOO>>>999aaaVVVnnnmmVVVxxxzzzznnnnnnnnnnnzzzlllzz%%%ffiiVVnnnnnnnnnnnnnnnnnnnnnnnnnnnnnnnzbZ   jjjVVVnnnlllbbnnnnnnnnnnnnnnnnnnnnnnnxxxooo666777hhhqqq",
"OOO>>>999aaaVVVnnnmmVVVxxxzznnnnnnnnnvnnnzzzlllzz%%%ffiiVVnnnnnnnnnnnnnnnnnnnnnnnnnnnnnnnnbZ   jjjVVVnnnlllbbVnnnnnnnnnnnnnnnnnnnnnnxxxooo666777hhhqqq",
"OOO>>>999aaaVVVnnnmmVVVxxxzznnnnnnnnvFnnnzzzlllzz%%%ffiiVVnnnnnnnnnnnnnnnnnnnnnnnnnnnnnnnnbZ   jjjVVVnnnlllbbbnnnnnnnnnnnnnnnnnnnnnncxxooo666777hhhqqq",
"...666>>>iiimmmmmmVVlllZvVBcnnnnnnnmxxVVVmmmnnnbbXXXaappVVVnnnnnnnnnnnnnnnnnnnnnnnnznnnnnnnmJJJaaaVVVlllPPPzzzvVnnnnnnnnnnnnnnnnnnnnCII---<<<:::hhhqqq",
"...666>>>iiimmmmmmVVlllvnnnnnnnnnnzxxxVVVmmmnnnbbXXXaappVVVznnnnnnnnnnnnnnnnnnnnnnnnnnnnnnnmJJJaaaVVVlllPPPzzzZlnnnnnnnnnnnnnnnnnnnzIII---<<<:::hhhqqq",
"...666>>>iiimmmmmmVVlllnnnnnnnnnnnxxxxVVVmmmnnnbbXXXaappVVVznnnnnnncznzmznnnnnnnnnnnnnnnnnnmJJJaaaVVVlllPPPzzzZZvVnVnnnnnnnnnnnnnzmmIII---<<<:::hhhqqq",
"@@@:::111ffflllzzzVVccznnnnnnnnnnVVbbbVVVzzzVVVxx###yyhhbbbnnnnnnnnzbVVnnnnnnnnnnnnnnnnnnnVb...pppnnnVVVnnnlllBBBbbVnnnnnnnnnnnnnvCzBBB@@@,,,111hhhqqq",
"@@@:::111ffflllzzzVVznnnnnnnnnnzVVVbbbVVVzzzVVVxx###yyhhbbbmnnVbVnzzllbnnnnnnnnnnnnnnnnnnzbb...pppnnnVVVnnnlllBBBbbnnnnnnnnnnnnnnFCzBBB@@@,,,111hhhqqq",
"@@@:::111ffflllzznnnnnnnnnnnnnzmVVVbbbVVVzzzVVVxx###yyhhbbbxcclllzzzllbnnnnnnnnnnnnnnnnzzzbb...pppnnnVVVnnnlllBBBbnnnnnnnnnnnnnnVCCzBBB@@@,,,111hhhqqq",
"   www<<<hhhnnnCVnnnnnnnnnnnnnnnmmmlllbbbnnnzzzzzXXXffsscccZZZnnnxxxVVVnnnnnnnnnnnVbVVVmmmllOOOiiinnnzzzVVVxxxFZbnnnnnnnnnnnznnnVFCcbbb@@@,,,111hhhqqq",
"   www<<<hhhnnnFnnnnnnnnnnnnnnnnnnzVVVVVVnnnzzzzzXXXffsscccZZZnnnxxxVVVmnnnnnnnnnnnVVVVmmmllOOOiiinnnzzzVVVxxmVnnnnnnnnnnnnnnnnnVCCcbbb@@@,,,111hhhqqq",
"   www<<<hhhnnnZnnnnnnnnnnnnnnnnnnnnnnnnnnnnzzzzzXXXffsscccZZZnnnxxxVVVmmmxnnnnnnnnnnVVmmmllOOOiiinnnzzzVVVxmnnnnnnnnnnnnnnnnnnnvCCcbbb@@@,,,111hhhqqq",
"@@@111<<<aaammmcnnnnnnnnnnnnnnnnnnnnnnnnnnnmnVVnn===pprrFFFxxxcccIICnnnnnnnnnnnnnnnnnVVZZZccUUUyyyzzzzzzbbbbnnnnnnnnnnnnnnnnnnnVDDDbmmm%%%,,,>>>hhhqqq",
"@@@111<<<aaammmxnnnnnnnnnnnnnnnnnnnnnnnnnnnnnVVnn===ppiiVFFxxxcccIFVnnnnnnnnnnnnnnnnnnnlZZccUUUyyyzzzzzzbbbVnnnnnnnnnnnnnnnnnnVlDDDbmmm%%%,,,>>>hhhqqq",
"@@@111<<<aaammmxnnnnnnnnnnnnnnnnnnnnnnnnnnnnnVVnn===ppiiVFFxxxcccZnnnnnnnnnnnnnnnnnnnnnnvzbb...pppnnzzzzbbbVnnnnnnnnnnnnnnnnnbllDDDbmmm%%%,,,>>>hhhqqq",
"ooo222111fffVVVmnnnnnnnnnnnnnnnnnnnnnnnnnnnnnccmmOOOaappVbbbbbvvvznnnnnnnnnnnnnnnnnnnnnnVzbb...pppnnVVVVccccnnnnnnnnnnnnnnnVVVVVvvvvZZZ---,,,,,,hhhqqq",
"ooo222111fffVVVcnnnnnnnnnnnnnnnnnnnnnnnnnnnzzccmmOOOaappVbbbbbvvvznnnnnnnnnnnnnnnnnnnnnnVmllOOOiiinnVVVVccccnnnnnnnnnnnnnnnVVVVVvvvvZZZ---,,,,,,hhhqqq",
"ooo222111fffVVVcmnmzznznnnnnnnnnnnnnnnnnnnnnnccmmOOOaappVbbbbvvvBcnnnnnnnnnzmmccxmzznnzVbmllOOOiiinnVVVVcccxznnnnnnnnnnnnnnVVVVVvvvvZZZ---,,,,,,hhhqqq",
"---444<<<sssvvvVVVVVcccznnnnnnnnnnnnnnnnnnnnnVVvv   sshhbVSSSccclllnnnVVVzzzzzmmmbbVnnnVVmllOOOiiinnnZZZnnnllbnnnnnnnnnnnzzzzzzzxxxnSSS...www:::hhhqqq",
"---444<<<sssvvvVVVVVBBBzzzbnnnnnnnnnnnnnnnnnVVVvv   sshhbVSSSccclllzzzlllzzzzzmmmlllnnnVVZccUUUyyyzznZZZnnnlllbbVzmmzzzccczzzzzzxxxnSSS...www:::hhhqqq",
"---444<<<sssvvvVVVVVBBBzzzFZvnnnnVVVVVmmmzzzVVVvv   sshhbVSSSccclllzzzlllzzzzzmmmlllnnnVVZccUUUyyyzznZZZnnnlllbbbmmmzzzccczzzzzzxxxnSSS...www:::hhhqqq",
"   eeewwwNNNXXXoooXX###   XXX.##OOO@@@...oooOOOoo&&&jja   @@@      ooo$$$..ooo$$$@@@@@@OOOK   ssssXXXXXX%%%OOO...---   ...   @@@KKK&...@@@222777hhhqqq",
"   eeewwwNNNXXXoooXX###   XXX...OOO@@@...oooOOOoo&&&jja   @@@      ooo$$$..ooo$$$@@@@@@OOOK   ssssXXXXXX%%%OOO...---   ...   @@@KKK&...@@@222777hhhqqq",
"OOO444444111>>>www<<111777<<<777,,,<<<www999777<<11177,GGG>>>111:::666www66:::>>>777222,,,6>>><<<<333999888:::eee444111:::<<<6666662333www111,,,hhhqqq",
"OOO444444111>>>www<<111777<<<777,,,<<<www999777<<11177,GGG>>>111:::666www66:::>>>777222,,,6>>><<<<333999888:::eee444111:::<<<6666662333www111,,,hhhqqq",
"OOO444444111>>>www<<111777<<<777,,,<<<www999777<<11177,GGG>>>111:::666www66:::>>>777222,,,6>>><<<<333999888:::eee444111:::<<<6666662333www111,,,hhhqqq",
"@@@666YYY444:::999,,,,,:::>>>999www111222777,,,ww>>>22,<<<TTT111111:::77766,,,:::111>>><<<7999wwww,,,<<<:::444666:::>>>111>>>>>>6667222<<<111<<<hhhqqq",
"@@@666YYY444:::999,,,,,:::>>>999www111222777,,,ww>>>22,<<<TTT111111:::77766,,,:::111>>><<<7999wwww,,,<<<:::444666:::>>>111>>>>>>6667222<<<111<<<hhhqqq",
"@@@666YYY444:::999,,,,,:::>>>999www111222777,,,ww>>>22,<<<TTT111111:::77766,,,:::111>>><<<7999wwww,,,<<<:::444666:::>>>111>>>>>>6667222<<<111<<<hhhqqq",
"   iiisssrrrsssiiijjjjjfffhhhsssuuu000pppfffjjjppjjjffijjjhhhuuuhhhsssyyyhhhhhjjjpppiiiyyypiiijjjjfffiiifffrrrfffhhhjjjhhhppppppfffffffiiipppiiihhhqqq",
"   iiisssrrrsssiiijjjjjfffhhhsssuuu000pppfffjjjppjjjffijjjhhhuuuhhhsssyyyhhhhhjjjpppiiiyyypiiijjjjfffiiifffrrrfffhhhjjjhhhppppppfffffffiiipppiiihhhqqq",
"   iiisssrrrsssiiijjjjjfffhhhsssuuu000pppfffjjjppjjjffijjjhhhuuuhhhsssyyyhhhhhjjjpppiiiyyypiiijjjjfffiiifffrrrfffhhhjjjhhhppppppfffffffiiipppiiihhhqqq",
"qqqqqqqqqqqqqqqqqqqqqqqqqqqqqqqqqqqqqqqqqqqqqqqqqqqqqqqqqqqqqqqqqqqqqqqqqqqqqqqqqqqqqqqqqqqqqqqqqqqqqqqqqqqqqqqqqqqqqqqqqqqqqqqqqqqqqqqqqqqqqqqqqqqqqq",
"qqqqqqqqqqqqqqqqqqqqqqqqqqqqqqqqqqqqqqqqqqqqqqqqqqqqqqqqqqqqqqqqqqqqqqqqqqqqqqqqqqqqqqqqqqqqqqqqqqqqqqqqqqqqqqqqqqqqqqqqqqqqqqqqqqqqqqqqqqqqqqqqqqqqqq",
"qqqqqqqqqqqqqqqqqqqqqqqqqqqqqqqqqqqqqqqqqqqqqqqqqqqqqqqqqqqqqqqqqqqqqqqqqqqqqqqqqqqqqqqqqqqqqqqqqqqqqqqqqqqqqqqqqqqqqqqqqqqqqqqqqqqqqqqqqqqqqqqqqqqqqq"
};
